<svg width="30" height="35" viewBox="0 0 30 35" fill="none" xmlns="http://www.w3.org/2000/svg">
<g clip-path="url(#clip0_1_129)">
<path d="M14.9999 0C13.8147 0 12.8571 0.957589 12.8571 2.14286V3.42857C7.96869 4.41964 4.28565 8.74553 4.28565 13.9286V15.1875C4.28565 18.3348 3.12717 21.375 1.03789 23.7321L0.54235 24.2879C-0.0201504 24.9174 -0.154079 25.8214 0.187439 26.5915C0.528957 27.3616 1.29905 27.8571 2.1428 27.8571H27.8571C28.7008 27.8571 29.4642 27.3616 29.8124 26.5915C30.1607 25.8214 30.02 24.9174 29.4575 24.2879L28.962 23.7321C26.8727 21.375 25.7142 18.3415 25.7142 15.1875V13.9286C25.7142 8.74553 22.0312 4.41964 17.1428 3.42857V2.14286C17.1428 0.957589 16.1852 0 14.9999 0ZM18.0334 33.0335C18.837 32.2299 19.2857 31.1384 19.2857 30H14.9999H10.7142C10.7142 31.1384 11.1629 32.2299 11.9665 33.0335C12.77 33.8371 13.8615 34.2857 14.9999 34.2857C16.1383 34.2857 17.2298 33.8371 18.0334 33.0335Z" fill="#FFC156"/>
</g>
<defs>
<clipPath id="clip0_1_129">
<rect width="30" height="34.2857" fill="white"/>
</clipPath>
</defs>
</svg>
