<svg width="40" height="40" viewBox="0 0 40 40" fill="none" xmlns="http://www.w3.org/2000/svg">
<g clip-path="url(#clip0_1_100)">
<path d="M36.25 20C36.25 24.3098 34.538 28.443 31.4905 31.4905C28.443 34.538 24.3098 36.25 20 36.25C15.6902 36.25 11.557 34.538 8.50951 31.4905C5.46205 28.443 3.75 24.3098 3.75 20C3.75 15.6902 5.46205 11.557 8.50951 8.50951C11.557 5.46205 15.6902 3.75 20 3.75C24.3098 3.75 28.443 5.46205 31.4905 8.50951C34.538 11.557 36.25 15.6902 36.25 20ZM0 20C0 25.3043 2.10714 30.3914 5.85786 34.1421C9.60859 37.8929 14.6957 40 20 40C25.3043 40 30.3914 37.8929 34.1421 34.1421C37.8929 30.3914 40 25.3043 40 20C40 14.6957 37.8929 9.60859 34.1421 5.85786C30.3914 2.10714 25.3043 0 20 0C14.6957 0 9.60859 2.10714 5.85786 5.85786C2.10714 9.60859 0 14.6957 0 20ZM18.125 9.375V20C18.125 20.625 18.4375 21.2109 18.9609 21.5625L26.4609 26.5625C27.3203 27.1406 28.4844 26.9062 29.0625 26.0391C29.6406 25.1719 29.4062 24.0156 28.5391 23.4375L21.875 19V9.375C21.875 8.33594 21.0391 7.5 20 7.5C18.9609 7.5 18.125 8.33594 18.125 9.375Z" fill="#849AFA"/>
</g>
<defs>
<clipPath id="clip0_1_100">
<rect width="40" height="40" fill="white"/>
</clipPath>
</defs>
</svg>
