<svg width="20" height="18" viewBox="0 0 20 18" fill="none" xmlns="http://www.w3.org/2000/svg">
<g clip-path="url(#clip0_1_96)">
<path d="M19.993 8.87153C19.993 9.49653 19.4722 9.98611 18.8819 9.98611H17.7708L17.7951 15.5486C17.7951 15.6424 17.7881 15.7361 17.7777 15.8299V16.3924C17.7777 17.1597 17.1562 17.7812 16.3888 17.7812H15.8333C15.7951 17.7812 15.7569 17.7812 15.7187 17.7778C15.6701 17.7812 15.6215 17.7812 15.5729 17.7812L14.4444 17.7778H13.6111C12.8437 17.7778 12.2222 17.1562 12.2222 16.3889V15.5556V13.3333C12.2222 12.7187 11.7256 12.2222 11.1111 12.2222H8.88883C8.27425 12.2222 7.77772 12.7187 7.77772 13.3333V15.5556V16.3889C7.77772 17.1562 7.1562 17.7778 6.38883 17.7778H5.5555H4.44786C4.39578 17.7778 4.3437 17.7743 4.29161 17.7708C4.24995 17.7743 4.20828 17.7778 4.16661 17.7778H3.61106C2.8437 17.7778 2.22217 17.1562 2.22217 16.3889V12.5C2.22217 12.4687 2.22217 12.434 2.22564 12.4028V9.98264H1.11453C0.489529 9.98264 0.00341797 9.49653 0.00341797 8.86805C0.00341797 8.55555 0.107585 8.27778 0.35064 8.03472L9.24995 0.277778C9.493 0.0347222 9.77078 0 10.0138 0C10.2569 0 10.5347 0.0694444 10.743 0.243056L19.6111 8.03819C19.8888 8.28125 20.0277 8.55903 19.993 8.87153Z" fill="#849AFA"/>
</g>
<defs>
<clipPath id="clip0_1_96">
<rect width="20" height="17.7778" fill="white"/>
</clipPath>
</defs>
</svg>
