<svg width="20" height="27" viewBox="0 0 20 27" fill="none" xmlns="http://www.w3.org/2000/svg">
<path d="M9.91665 3.85937C10.2083 2.98437 9.73436 2.04166 8.86457 1.74999C7.99478 1.45833 7.04686 1.93228 6.75519 2.80208L0.0885248 22.8021C-0.203142 23.6771 0.270816 24.6198 1.14061 24.9114C2.0104 25.2031 2.95832 24.7292 3.24998 23.8594L9.91665 3.85937ZM13.6094 1.68749C12.7031 1.53645 11.8437 2.15104 11.6927 3.05729L8.35936 23.0573C8.20832 23.9635 8.8229 24.8229 9.72915 24.974C10.6354 25.125 11.4948 24.5104 11.6458 23.6042L14.9791 3.60416C15.1302 2.69791 14.5156 1.83854 13.6094 1.68749ZM18.3333 1.66666C17.4114 1.66666 16.6667 2.41145 16.6667 3.33333V23.3333C16.6667 24.2552 17.4114 25 18.3333 25C19.2552 25 20 24.2552 20 23.3333V3.33333C20 2.41145 19.2552 1.66666 18.3333 1.66666Z" fill="#849AFA"/>
</svg>
