<svg width="20" height="23" viewBox="0 0 20 23" fill="none" xmlns="http://www.w3.org/2000/svg">
<path d="M11.4286 3.59375C11.4286 2.79863 10.7902 2.15625 10 2.15625C9.20983 2.15625 8.57144 2.79863 8.57144 3.59375V10.0625H2.14287C1.35269 10.0625 0.714294 10.7049 0.714294 11.5C0.714294 12.2951 1.35269 12.9375 2.14287 12.9375H8.57144V19.4062C8.57144 20.2014 9.20983 20.8438 10 20.8438C10.7902 20.8438 11.4286 20.2014 11.4286 19.4062V12.9375H17.8572C18.6473 12.9375 19.2857 12.2951 19.2857 11.5C19.2857 10.7049 18.6473 10.0625 17.8572 10.0625H11.4286V3.59375Z" fill="white"/>
</svg>
