<svg width="30" height="35" viewBox="0 0 30 35" fill="none" xmlns="http://www.w3.org/2000/svg">
<path d="M9.05357 1.18527L8.57143 2.14286H2.14286C0.957589 2.14286 0 3.10045 0 4.28571C0 5.47098 0.957589 6.42857 2.14286 6.42857H27.8571C29.0424 6.42857 30 5.47098 30 4.28571C30 3.10045 29.0424 2.14286 27.8571 2.14286H21.4286L20.9464 1.18527C20.5848 0.455357 19.8415 0 19.0312 0H10.9688C10.1585 0 9.41518 0.455357 9.05357 1.18527ZM27.8571 8.57143H2.14286L3.5625 31.2723C3.66964 32.9665 5.07589 34.2857 6.77009 34.2857H23.2299C24.9241 34.2857 26.3304 32.9665 26.4375 31.2723L27.8571 8.57143Z" fill="#FF8075"/>
</svg>
